<svg width="166" height="144" viewBox="0 0 166 144" fill="none" xmlns="http://www.w3.org/2000/svg">
<g id="Girl - Chart ">
<path id="Vector" d="M82.5135 77.5612L79.6047 78.7316L79.5048 78.4926L82.4136 77.3223L82.5135 77.5612ZM76.6959 79.902L73.7871 81.0724L73.6871 80.8335L76.5959 79.6631L76.6959 79.902ZM70.8783 82.2428L67.9694 83.4132L67.8695 83.1743L70.7783 82.0039L70.8783 82.2428ZM65.0606 84.5836L62.1518 85.7541L62.0518 85.5151L64.9607 84.3448L65.0606 84.5836ZM59.243 86.9245L56.3341 88.095L56.2342 87.856L59.143 86.6856L59.243 86.9245ZM53.4253 89.2654L50.5165 90.4358L50.4165 90.1969L53.3253 89.0264L53.4253 89.2654ZM47.6076 91.6062L44.6988 92.7766L44.5989 92.5377L47.5077 91.3673L47.6076 91.6062ZM41.79 93.947L38.8812 95.1174L38.7812 94.8785L41.6901 93.7081L41.79 93.947Z" fill="#E6E6E6"/>
<path id="Vector_2" d="M35.8737 96.0488L34.4121 96.6369L34.512 96.8758L35.9736 96.2877L35.8737 96.0488Z" fill="#E6E6E6"/>
<path id="Vector_3" d="M62.6813 97.5437L61.2197 98.1318L61.3197 98.3708L62.7812 97.7827L62.6813 97.5437Z" fill="#E6E6E6"/>
<path id="Vector_4" d="M58.3274 99.575L55.3346 100.779L55.2347 100.54L58.2274 99.336L58.3274 99.575ZM52.3418 101.983L49.3491 103.188L49.2492 102.949L52.2419 101.744L52.3418 101.983ZM46.3564 104.392L43.3636 105.596L43.2637 105.357L46.2564 104.153L46.3564 104.392Z" fill="#E6E6E6"/>
<path id="Vector_5" d="M40.2702 106.561L38.8086 107.149L38.9085 107.388L40.3701 106.8L40.2702 106.561Z" fill="#E6E6E6"/>
<path id="Vector_6" d="M70.1852 115.483L68.7236 116.071L68.8236 116.31L70.2851 115.722L70.1852 115.483Z" fill="#E6E6E6"/>
<path id="Vector_7" d="M65.8303 117.515L62.8375 118.719L62.7376 118.48L65.7303 117.276L65.8303 117.515ZM59.8447 119.923L56.852 121.127L56.7521 120.888L59.7448 119.684L59.8447 119.923ZM53.8593 122.331L50.8665 123.535L50.7666 123.296L53.7593 122.092L53.8593 122.331Z" fill="#E6E6E6"/>
<path id="Vector_8" d="M47.7741 124.501L46.3125 125.089L46.4124 125.328L47.874 124.74L47.7741 124.501Z" fill="#E6E6E6"/>
<path id="Vector_9" d="M62.7308 99.471C63.7487 99.471 64.5739 98.6617 64.5739 97.6633C64.5739 96.665 63.7487 95.8556 62.7308 95.8556C61.7129 95.8556 60.8877 96.665 60.8877 97.6633C60.8877 98.6617 61.7129 99.471 62.7308 99.471Z" fill="#3F3D56"/>
<path id="Vector_10" d="M160.079 97.1185L46.3903 142.863C44.4378 143.646 42.2484 143.638 40.3023 142.839C38.3562 142.041 36.8123 140.518 36.0095 138.605L1.20764 55.4033C0.622677 54.0004 0.628996 52.4271 1.2252 51.0288C1.82141 49.6304 2.95881 48.5211 4.38789 47.9442L121.92 0.653324C123.375 0.0697087 125.007 0.0760589 126.457 0.67097C127.908 1.26588 129.058 2.40077 129.657 3.82667L164.42 86.9371C165.219 88.8521 165.21 90.9995 164.396 92.9082C163.582 94.817 162.03 96.3311 160.079 97.1185V97.1185Z" fill="#E6E6E6"/>
<path id="Vector_11" d="M50.5085 132.771L149.921 92.771C151.814 92.0093 153.322 90.5412 154.111 88.6897C154.9 86.8382 154.908 84.7549 154.131 82.8982L126.029 15.7132C125.644 14.7939 125.079 13.9578 124.365 13.2528C123.651 12.5477 122.802 11.9875 121.867 11.6041C120.933 11.2207 119.93 11.0217 118.917 11.0183C117.904 11.0149 116.9 11.2073 115.962 11.5845L16.5496 51.5848C15.6123 51.962 14.7598 52.5165 14.041 53.2168C13.3221 53.9171 12.7509 54.7493 12.36 55.6661C11.9691 56.5829 11.7662 57.5663 11.7627 58.56C11.7593 59.5537 11.9555 60.5383 12.34 61.4577L40.4423 128.643C40.8268 129.562 41.3922 130.398 42.1062 131.103C42.8202 131.808 43.6688 132.368 44.6036 132.752C45.5383 133.135 46.5409 133.334 47.554 133.338C48.5672 133.341 49.5712 133.149 50.5085 132.771V132.771Z" fill="white"/>
<path id="Vector_12" d="M121.165 36.0506L118.213 37.2386L118.113 36.9997L121.065 35.8116L121.165 36.0506ZM115.26 38.4267L112.307 39.6147L112.207 39.3758L115.16 38.1878L115.26 38.4267ZM109.355 40.8028L106.402 41.9909L106.302 41.7519L109.255 40.5639L109.355 40.8028ZM103.449 43.1789L100.497 44.3669L100.397 44.1281L103.349 42.94L103.449 43.1789ZM97.5438 45.555L94.5912 46.7431L94.4912 46.5042L97.4439 45.3161L97.5438 45.555ZM91.6385 47.9312L88.6858 49.1192L88.5859 48.8803L91.5385 47.6922L91.6385 47.9312ZM85.7331 50.3073L82.7805 51.4953L82.6805 51.2564L85.6332 50.0684L85.7331 50.3073ZM79.8278 52.6834L76.8751 53.8715L76.7752 53.6325L79.7278 52.4445L79.8278 52.6834ZM73.9224 55.0595L70.9697 56.2475L70.8698 56.0087L73.8225 54.8206L73.9224 55.0595ZM68.017 57.4356L65.0644 58.6237L64.9644 58.3848L67.9171 57.1967L68.017 57.4356ZM62.1117 59.8118L59.159 60.9998L59.0591 60.7609L62.0117 59.5728L62.1117 59.8118ZM56.2063 62.1879L53.2537 63.3759L53.1537 63.137L56.1064 61.9489L56.2063 62.1879ZM50.3009 64.564L47.3483 65.7521L47.2484 65.5131L50.201 64.3251L50.3009 64.564ZM44.3956 66.9401L41.4429 68.1282L41.3429 67.8893L44.2957 66.7012L44.3956 66.9401ZM38.4902 69.3162L35.5376 70.5043L35.4376 70.2654L38.3903 69.0773L38.4902 69.3162ZM32.5849 71.6923L29.6322 72.8804L29.5322 72.6415L32.4849 71.4534L32.5849 71.6923Z" fill="#E6E6E6"/>
<path id="Vector_13" d="M54.7295 122.195L138.975 88.2978C141.014 87.4748 142.637 85.8921 143.487 83.8971C144.338 81.9021 144.347 79.6576 143.513 77.656L126.491 36.9623L126.327 37.034L105.653 85.5165L90.3194 79.2293C90.0365 79.1124 89.7299 79.0613 89.4234 79.08C89.117 79.0988 88.8192 79.1869 88.5533 79.3374C88.1541 79.5731 87.8451 79.9312 87.6744 80.3565L76.8396 105.763L65.6287 101.167C65.3868 101.067 65.1273 101.016 64.8651 101.015C64.6028 101.014 64.343 101.064 64.1004 101.161C63.8577 101.259 63.6371 101.402 63.4511 101.584C63.2651 101.765 63.1173 101.98 63.0162 102.218C62.9444 102.39 56.0319 119.025 54.7295 122.195Z" fill="#6C63FF"/>
<path id="Vector_14" d="M54.4695 122.579L54.2266 122.479L62.8956 102.147C63.1251 101.611 63.5623 101.185 64.1112 100.964C64.6602 100.744 65.276 100.745 65.8237 100.969L76.8132 105.477L87.5863 80.2103C87.8158 79.6736 88.253 79.2482 88.8019 79.0273C89.3509 78.8064 89.9668 78.8081 90.5144 79.0321L105.626 85.2303L126.406 36.4944L126.649 36.594L105.768 85.5682L90.4129 79.2703C90.1736 79.1722 89.917 79.1213 89.6577 79.1204C89.3984 79.1195 89.1414 79.1688 88.9015 79.2653C88.6616 79.3618 88.4434 79.5038 88.2594 79.683C88.0754 79.8623 87.9292 80.0753 87.8292 80.31L76.9545 105.815L65.7221 101.208C65.2389 101.01 64.6955 101.009 64.2112 101.203C63.7268 101.398 63.341 101.774 63.1384 102.247L54.4695 122.579Z" fill="#3F3D56"/>
<path id="Vector_15" d="M86.7848 75.5637L85.3232 76.1518L85.4232 76.3907L86.8848 75.8026L86.7848 75.5637Z" fill="#E6E6E6"/>
<path id="Vector_16" d="M86.8353 77.4908C87.8532 77.4908 88.6784 76.6815 88.6784 75.6832C88.6784 74.6848 87.8532 73.8755 86.8353 73.8755C85.8174 73.8755 84.9922 74.6848 84.9922 75.6832C84.9922 76.6815 85.8174 77.4908 86.8353 77.4908Z" fill="#3F3D56"/>
<path id="Vector_17" d="M125.48 34.0355L124.019 34.6236L124.118 34.8625L125.58 34.2744L125.48 34.0355Z" fill="#E6E6E6"/>
<path id="Vector_18" d="M124.367 35.8988C125.384 35.8988 126.21 35.0895 126.21 34.0911C126.21 33.0928 125.384 32.2834 124.367 32.2834C123.349 32.2834 122.523 33.0928 122.523 34.0911C122.523 35.0895 123.349 35.8988 124.367 35.8988Z" fill="#3F3D56"/>
<path id="Vector_19" d="M26.5797 73.8295L25.1182 74.4176L25.2181 74.6565L26.6797 74.0685L26.5797 73.8295Z" fill="#E6E6E6"/>
</g>
</svg>
