<svg width="140" height="264" viewBox="0 0 140 264" fill="none" xmlns="http://www.w3.org/2000/svg">
<g id="Girl - Main body">
<path id="Vector" d="M72.0668 40.4452C81.3103 40.4452 88.8036 33.0959 88.8036 24.03C88.8036 14.9641 81.3103 7.61475 72.0668 7.61475C62.8234 7.61475 55.3301 14.9641 55.3301 24.03C55.3301 33.0959 62.8234 40.4452 72.0668 40.4452Z" fill="#FFB8B8"/>
<path id="Vector_2" d="M75.2172 99.984C74.5472 99.9837 73.8958 99.768 73.363 99.3697C72.8301 98.9714 72.4451 98.4127 72.2672 97.7792C70.9263 93.0009 67.4376 84.9221 61.8982 73.7658C60.6483 71.2439 59.9562 68.4913 59.8672 65.6886C59.7783 62.886 60.2945 60.0965 61.382 57.5033C62.4695 54.91 64.1038 52.5716 66.1776 50.6414C68.2514 48.7112 70.7178 47.2328 73.4151 46.3032C75.9712 45.418 78.6824 45.0446 81.3882 45.2051C84.0941 45.3656 86.7396 46.0568 89.1683 47.2377C91.597 48.4186 93.7596 50.0652 95.528 52.0802C97.2965 54.0952 98.635 56.4376 99.4642 58.9689C103.758 72.1713 103.551 86.3135 103.262 91.7804C103.226 92.4388 102.971 93.0676 102.536 93.5704C102.101 94.0732 101.51 94.4222 100.854 94.5641L75.8748 99.9142C75.6588 99.9607 75.4383 99.9841 75.2172 99.984Z" fill="#FF6584"/>
<path id="Vector_3" d="M99.4067 255.861H107.761L111.735 224.256L99.4053 224.257L99.4067 255.861Z" fill="#FFB8B8"/>
<path id="Vector_4" d="M123.873 263.469L97.6168 263.47L97.6164 253.52L113.728 253.52C115.06 253.519 116.379 253.777 117.61 254.277C118.841 254.777 119.959 255.509 120.901 256.433C121.844 257.357 122.591 258.454 123.101 259.661C123.611 260.868 123.873 262.162 123.873 263.469Z" fill="#2F2E41"/>
<path id="Vector_5" d="M15.8672 245.242L23.1884 249.19L42.1963 223.374L31.3922 217.547L15.8672 245.242Z" fill="#FFB8B8"/>
<path id="Vector_6" d="M33.5713 263.47L10.563 251.063L15.4503 242.345L29.569 249.958C31.9266 251.229 33.6728 253.367 34.4234 255.901C35.174 258.435 34.8675 261.157 33.5713 263.47V263.47V263.47Z" fill="#2F2E41"/>
<path id="Vector_7" d="M99.0164 238.319C98.272 238.318 97.5532 238.052 96.9942 237.57C96.4352 237.088 96.0741 236.423 95.9784 235.699L85.5304 156.735C85.4842 156.385 85.3267 156.059 85.0803 155.803C84.834 155.547 84.5113 155.374 84.1585 155.308C83.8057 155.242 83.4408 155.288 83.1158 155.437C82.7909 155.587 82.5225 155.834 82.3491 156.143L38.8063 233.624C38.447 234.257 37.8682 234.742 37.1751 234.992C36.4819 235.241 35.7205 235.238 35.0293 234.984L25.5383 231.437C25.1565 231.295 24.8077 231.079 24.5122 230.802C24.2168 230.525 23.9807 230.193 23.8178 229.826C23.6549 229.459 23.5685 229.063 23.5637 228.662C23.5589 228.262 23.6357 227.864 23.7898 227.493L53.953 154.819C54.0294 154.634 54.0811 154.441 54.107 154.243C58.1925 123.23 68.5872 107.459 71.6756 103.364C71.9012 103.063 72.0497 102.713 72.1085 102.344C72.1673 101.975 72.1347 101.597 72.0135 101.243L71.589 99.9938C71.4194 99.498 71.3846 98.9674 71.4881 98.4543C71.5916 97.9413 71.8298 97.4636 72.1791 97.0685C83.3078 84.6363 102.705 91.4202 102.899 91.4901L102.997 91.5253L103.058 91.6069C124.807 120.862 116.766 215.882 114.933 234.633C114.864 235.337 114.544 235.996 114.028 236.491C113.513 236.986 112.835 237.287 112.116 237.339L99.2546 238.311C99.1746 238.316 99.0953 238.319 99.0164 238.319Z" fill="#2F2E41"/>
<path id="Vector_8" d="M74.715 20.2543C79.0167 23.1419 84.6649 26.1102 89.0584 23.0351C90.4328 22.0087 91.4311 20.5733 91.9042 18.9438C92.3772 17.3143 92.2994 15.5784 91.6824 13.9959C89.5786 8.09533 83.7986 5.49765 78.2714 3.50647C71.086 0.917928 63.2623 -1.14137 55.8446 0.71242C48.4269 2.56621 41.8713 9.61004 43.2103 17.0019C44.2872 22.9464 50.0043 27.8926 49.1926 33.8774C48.3758 39.9006 41.4694 43.0711 35.3721 44.1475C29.2748 45.224 22.4518 45.5699 18.07 49.8654C12.4801 55.345 13.876 65.1392 19.1358 70.9246C24.3957 76.71 32.3331 79.3325 40.0244 81.1153C50.215 83.4774 61.2368 84.7187 70.9153 80.7986C80.5938 76.8785 88.1254 66.326 85.3217 56.4309C84.1375 52.2512 81.3477 48.7188 78.6515 45.2799C75.9553 41.841 73.2251 38.2449 72.1967 34.0257C71.3396 30.5097 71.9739 26.4275 74.3512 23.7901C74.7836 23.3285 75.0557 22.7443 75.1285 22.1216C75.2013 21.4988 75.071 20.8694 74.7563 20.3238L74.715 20.2543Z" fill="#2F2E41"/>
<path id="Vector_9" d="M138.506 263.867H0.725161C0.532837 263.867 0.348388 263.792 0.212394 263.658C0.0764002 263.525 0 263.344 0 263.155C0 262.967 0.0764002 262.786 0.212394 262.652C0.348388 262.519 0.532837 262.444 0.725161 262.444H138.506C138.698 262.444 138.883 262.519 139.019 262.652C139.155 262.786 139.231 262.967 139.231 263.155C139.231 263.344 139.155 263.525 139.019 263.658C138.883 263.792 138.698 263.867 138.506 263.867Z" fill="#CCCCCC"/>
</g>
</svg>
