<svg width="74" height="39" viewBox="0 0 74 39" fill="none" xmlns="http://www.w3.org/2000/svg">
<g id="Girl - Right Arm ">
<path id="Vector" d="M59.1322 6.09805C59.0486 6.45867 58.9941 6.82519 58.9692 7.19422L29.6964 23.7571L22.5813 19.7398L14.9961 29.4791L26.8874 37.7917C27.848 38.4632 29.0049 38.811 30.1842 38.7828C31.3636 38.7546 32.5018 38.352 33.4279 37.6353L63.6132 14.2795C64.9754 14.7741 66.4589 14.8501 67.8663 14.4976C69.2737 14.1451 70.5384 13.3806 71.492 12.306C72.4457 11.2313 73.0431 9.89738 73.2049 8.48156C73.3667 7.06575 73.0852 5.63518 72.3978 4.38012C71.7104 3.12505 70.6497 2.10499 69.3568 1.4556C68.0639 0.806211 66.6001 0.558267 65.16 0.744761C63.7199 0.931255 62.3718 1.54335 61.2951 2.49961C60.2183 3.45588 59.4639 4.71101 59.1322 6.09805V6.09805Z" fill="#FFB8B8"/>
<path id="Vector_2" d="M28.7171 24.5417L19.2562 36.5679C18.987 36.9101 18.6458 37.1913 18.2558 37.3925C17.8658 37.5936 17.4361 37.71 16.9961 37.7337C16.5561 37.7573 16.1161 37.6876 15.706 37.5295C15.296 37.3713 14.9255 37.1282 14.6198 36.8169L3.90943 25.9088C2.13228 24.548 0.977809 22.5516 0.699129 20.3573C0.420449 18.163 1.04031 15.9499 2.4228 14.2031C3.8053 12.4564 5.83759 11.3186 8.0741 11.0392C10.3106 10.7599 12.5688 11.3617 14.3536 12.7128L27.7867 20.0799C28.1712 20.2909 28.5049 20.5808 28.7649 20.9297C29.0249 21.2786 29.2052 21.6784 29.2935 22.1018C29.3818 22.5253 29.376 22.9624 29.2766 23.3834C29.1771 23.8044 28.9863 24.1995 28.7171 24.5417V24.5417Z" fill="#FF6584"/>
</g>
</svg>
