<svg width="25" height="80" viewBox="0 0 25 80" fill="none" xmlns="http://www.w3.org/2000/svg">
<g id="Gril - Left Arm">
<path id="Vector" d="M11.2052 78.6121C12.1633 78.1445 13.0053 77.4765 13.6717 76.6552C14.3381 75.834 14.8129 74.8793 15.0624 73.8586C15.312 72.8379 15.3304 71.776 15.1162 70.7476C14.9021 69.7192 14.4606 68.7493 13.823 67.9063L19.2969 15.4144H7.46718L3.11688 66.6701C1.74399 67.8146 0.846849 69.4132 0.59545 71.1631C0.344051 72.913 0.755866 74.6926 1.75286 76.1647C2.74985 77.6367 4.26275 78.6988 6.00488 79.1499C7.74701 79.601 9.59733 79.4097 11.2052 78.6121Z" fill="#FFB8B8"/>
<path id="Vector_2" d="M20.0496 28.4355L4.80868 25.7364C4.37504 25.6596 3.96336 25.4921 3.60169 25.2452C3.24003 24.9983 2.93686 24.6778 2.71286 24.3056C2.48885 23.9334 2.34927 23.5182 2.30361 23.0884C2.25796 22.6585 2.3073 22.224 2.44828 21.8146L7.38908 7.46696C7.80216 5.29302 9.07735 3.36844 10.9351 2.11528C12.7928 0.862109 15.0813 0.382614 17.2989 0.781936C19.5166 1.18126 21.4822 2.4268 22.7649 4.24545C24.0476 6.0641 24.5426 8.30745 24.1414 10.4835L23.6593 25.571C23.6454 26.0029 23.5367 26.4269 23.3406 26.814C23.1446 27.201 22.8658 27.5421 22.5232 27.814C22.1806 28.0858 21.7824 28.282 21.3555 28.3893C20.9286 28.4966 20.4832 28.5123 20.0495 28.4355H20.0496Z" fill="#FF6584"/>
</g>
</svg>
